<?xml version="1.0" encoding="utf-8"?>
<!-- Generator: Adobe Illustrator 21.0.0, SVG Export Plug-In . SVG Version: 6.00 Build 0)  -->
<svg version="1.1" id="Layer_1" xmlns="http://www.w3.org/2000/svg" xmlns:xlink="http://www.w3.org/1999/xlink" x="0px" y="0px"
	 viewBox="0 0 24 24" style="enable-background:new 0 0 24 24;" xml:space="preserve">
<style type="text/css">
	.st0{fill:#009ADF;}
</style>
<title>icon</title>
<g id="browse">
	<path class="st0" d="M21,14.1c0-0.3-0.2-0.5-0.5-0.5h-2.7v-0.1c-0.1-1.1-0.5-2.1-1.2-2.9l-0.1-0.1l2.2-1.7c0.2-0.2,0.2-0.5,0-0.7
		c-0.2-0.2-0.5-0.2-0.7,0l-2.2,1.8l-0.1-0.1c-0.1-0.1-0.3-0.2-0.4-0.3h-0.1V9.3c0.4-1.4-0.3-3-1.6-3.7l-0.1-0.1l0.8-1.4
		c0.1-0.2,0-0.5-0.2-0.7s-0.5,0-0.7,0.2l0,0l-0.9,1.6h-0.1c-0.3-0.1-0.7-0.1-1.1,0h-0.1l-0.9-1.6c-0.2-0.2-0.5-0.3-0.7-0.1
		C9.7,3.6,9.6,3.9,9.7,4.1l0.8,1.4l-0.1,0.1C9.1,6.3,8.4,7.8,8.8,9.3v0.1H8.8C8.6,9.4,8.5,9.6,8.3,9.7L8.2,9.7L8.2,9.7L6,8
		C5.9,7.9,5.8,7.9,5.6,7.9c-0.3,0-0.5,0.3-0.4,0.5c0,0.1,0.1,0.2,0.2,0.3l2.2,1.7l-0.1,0.1c-0.7,0.8-1.1,1.8-1.2,2.9v0.1H3.6
		c-0.3,0-0.5,0.2-0.5,0.5s0.2,0.5,0.5,0.5h2.7v0.1c0.1,1.1,0.5,2.1,1.2,3l0.1,0.1l-2.1,1.7c-0.2,0.2-0.2,0.5-0.1,0.7
		c0.1,0.1,0.2,0.2,0.3,0.2c0.1,0,0.3,0,0.4-0.1l2.2-1.8l0.1,0.1c1,0.9,2.3,1.3,3.6,1.4H12c1.4,0,2.7-0.5,3.7-1.4l0.1-0.1l2.2,1.7
		c0.2,0.2,0.5,0.1,0.7-0.1s0.1-0.5-0.1-0.7l-2.1-1.7l0.1-0.1c0.7-0.9,1.1-1.9,1.2-3v-0.1h2.7C20.7,14.6,21,14.4,21,14.1
		C21,14.1,21,14.1,21,14.1z M10.2,7c0.8-1,2.3-1.2,3.3-0.4c0.6,0.5,1,1.3,0.9,2.1v0.1h-0.2l-0.5-0.2l0,0l-0.6-0.2h-0.6
		c-0.4,0-0.7,0-1.1,0l0,0H11l0,0l-0.5,0.1l0,0L10,8.8H9.8V8.7C9.7,8.1,9.8,7.5,10.2,7z M16.3,16.5c-0.8,1.4-2.2,2.3-3.8,2.5h-0.1
		v-6.9c0-0.3-0.2-0.5-0.5-0.5s-0.5,0.2-0.5,0.5l0,0v6.9h-0.1c-2.6-0.4-4.4-2.8-4-5.4C7.5,12,8.4,10.7,9.7,10h0.1l0.3-0.1l0.3-0.1
		c1.1-0.4,2.2-0.4,3.3,0L14,9.9l0.3,0.1h0.1C16.7,11.2,17.6,14.1,16.3,16.5C16.3,16.5,16.3,16.5,16.3,16.5L16.3,16.5z"/>
</g>
</svg>
